<svg data-v-0dd9719b="" version="1.0" xmlns="http://www.w3.org/2000/svg" xmlns:xlink="http://www.w3.org/1999/xlink" width="100%" height="100%" viewBox="0 0 340.000000 250.000000" preserveAspectRatio="xMidYMid meet" color-interpolation-filters="sRGB" style="margin: auto;"> <rect data-v-0dd9719b="" x="0" y="0" width="100%" height="100%" fill="#fff" fill-opacity="1" class="background"></rect> <rect data-v-0dd9719b="" x="0" y="0" width="100%" height="100%" fill="url(#watermark)" fill-opacity="1" class="watermarklayer"></rect> <g data-v-0dd9719b="" fill="#4eb8df" class="icon-text-wrapper icon-svg-group iconsvg" transform="translate(47.26499938964844,95.05001640319824)"><g class="iconsvg-imagesvg" transform="translate(0,0)"><g><rect fill="#4eb8df" fill-opacity="0" stroke-width="2" x="0" y="0" width="60" height="59.89996705501812" class="image-rect"></rect> <svg x="0" y="0" width="60" height="59.89996705501812" filtersec="colorsb861051316" class="image-svg-svg primary" style="overflow: visible;"><svg xmlns="http://www.w3.org/2000/svg" viewBox="0.007623434066772461 0.003406524658203125 169.13235473632812 168.85089111328125"><title>资源 90</title><g><g><path d="M138.83 148.72c-8.84 8.53-19.53 13.79-31.21 17C58.32 179 10 148.85 1.29 98.54-7 50.51 26 9.31 68.61 1.55q35.9-6.55 65.68 14.64c1.48 1.06 3.42 1.77 4 3.84-1-.2-2-.36-3-.61a20.71 20.71 0 0 0-26 16.75c-.88 4.86 1 9.23 2.1 13.76-1.1-.62-2.23-1.18-3.29-1.85a43.88 43.88 0 0 0-27.65-6.76c-22.73 1.76-41.91 23.34-39.02 48.25 2.65 22.78 24.2 40.38 47 38.06 9-.92 16.6-4.55 23.82-9.53-.38.93-.71 1.89-1.13 2.8A20.7 20.7 0 0 0 125 149.71c4.85 1.29 9.25-.29 13.83-.99z" fill="#4eb8df"></path><path d="M149 30.69c5.48 4.63 8.89 10.8 11.69 17.14 13.55 30.65 10.88 59.85-8.56 87.31-.82 1.16-1.36 2.82-3.18 3 .26-1.23.52-2.47.79-3.69A20.65 20.65 0 0 0 133 109.28c-5.26-1-10 .91-14.71 2.68.48-.75.92-1.52 1.44-2.24 7.77-10.81 9.62-22.79 7-35.62-1.33-6.1-4.67-11.22-7.73-16.5a8.67 8.67 0 0 1 2.2.42c12 5.69 26.79-2.11 29-16.1.66-3.92-1-7.47-1.2-11.23z" fill="#faaf41"></path><path d="M118.27 112c4.74-1.77 9.45-3.66 14.71-2.68a20.65 20.65 0 0 1 16.76 25.19c-.27 1.22-.53 2.46-.79 3.69v-.06c-.81.13-.79.82-.94 1.39a27.76 27.76 0 0 1-8.22 8.53l-.94.71h-.06c-4.58.7-9 2.25-13.85 1a20.7 20.7 0 0 1-13.85-28.81c.42-.91.75-1.87 1.13-2.8q3.04-3.16 6.05-6.16z" fill="#484ea0"></path><path d="M149 30.69c.2 3.76 1.86 7.29 1.24 11.23-2.22 14-17 21.79-29 16.1a8.67 8.67 0 0 0-2.2-.42c0-.57-.42-.75-.88-.89l-6.05-5.93c0-.53 0-1-.74-.92-1.08-4.53-3-8.9-2.1-13.76a20.71 20.71 0 0 1 26-16.75c1 .25 2 .41 3 .61h-.06c.2.84 1 .82 1.61 1.16a23.12 23.12 0 0 1 8.25 8.19c.15.58.21 1.23 1 1.38z" fill="#f03675"></path><path d="M139.8 21.18c-.58-.34-1.41-.32-1.61-1.16.95-.18 1.41.3 1.61 1.16z" fill="#4eb8df"></path><path d="M149 30.75c-.76-.15-.82-.8-1-1.38.9.09 1.18.63 1 1.38zM148.05 139.49c.15-.57.13-1.26.94-1.39.15.78.01 1.33-.94 1.39z" fill="#faaf41"></path><path d="M138.89 148.73l.94-.71zM112.13 50.81c-.25-.3-.49-.61-.74-.92.74-.09.78.39.74.92z" fill="#4eb8df"></path><path d="M119.06 57.63l-.88-.88c.46.13.82.31.88.88z" fill="#faaf41"></path></g></g></svg></svg> <!----></g></g> <g transform="translate(67,14.19498348236084)"><g data-gra="path-name" fill-rule="" class="tp-name iconsvg-namesvg"><g transform="scale(1)"><g><path d="M26.21-20.57C26.21-27.44 21.36-31.07 13.52-31.07 6.48-31.07 1.75-27.57 1.75-22.84 1.75-11.68 20.31-15.71 20.31-8.49 20.31-6 17.72-4.38 14.05-4.38 9.8-4.38 7.31-6.56 7.31-10.11L1.31-10.11C1.31-2.84 6.43 0.44 14.18 0.44 21.27 0.44 26.21-3.11 26.21-8.49 26.21-19.61 7.48-16.24 7.48-22.76 7.48-25.38 10.68-26.3 13.57-26.3 17.55-26.3 20.31-24.07 20.31-20.57ZM30.42 0L53.09 0 53.09-5.78 36.37-5.78 36.37-12.95 51.68-12.95 51.68-18.38 36.37-18.38 36.37-24.9 53.09-24.9 53.09-30.63 30.42-30.63ZM72.52-30.63L65.03-30.63 54.05 0 60.44 0 62.36-5.69 75.67-5.69 77.72 0 84.55 0ZM63.89-10.28L68.58-24.29 69.02-24.29 74.05-10.28ZM91.82 0L98.03 0 104.86-20.96 105.16-20.96 111.42 0 117.59 0 128.8-30.63 122.1-30.63 115.05-7.96 114.75-7.96 107.61-30.63 102.84-30.63 95.54-7.96 95.23-7.96 87.61-30.63 80.92-30.63ZM143.15-30.63L135.67-30.63 124.68 0 131.07 0 133-5.69 146.3-5.69 148.36 0 155.19 0ZM134.53-10.28L139.21-24.29 139.65-24.29 144.68-10.28ZM169.06-12.25L179.78-30.63 173.09-30.63 166.35-18.38 159.47-30.63 152.69-30.63 163.15-12.25 163.15 0 169.06 0Z" transform="translate(-1.309999942779541, 31.06999969482422)"></path></g> <!----> <!----> <!----> <!----> <!----> <!----> <!----></g></g> <!----></g></g><defs v-gra="od"></defs></svg>